MISSION:IMPOSSIBLE  The 1988 TV SEASON  4 Episodes Disc#4- 

Episodes: 

The Fixer #13 
A Washington columnist uses information he's gathered over his career to blackmail government officials.When he's brought before a grand jury, Jim Phelps and the IMF agents are assighed to make sure he's indicted and to destroy his secret records. 

SPY #14 
Rumors spread that an MI-6 agent, and former spy, has begun to manufacture his own chemical weapons.The team must seek and destroy the hidden chemical plant. 

The Devils #15 
The IMF team gets the mission to investigate the mysterious and deadly events happening around the country estate belonging to a member of the English House of Lords. 

The Plague #16 
A Parisian nightclub owner is suspected of stealing a lethal bacteria that promotes rapid aging. Now, the IMF team must find and neutralize the biological threat to prevent a global outbreak. 

INFO: 

Format                                   : MPEG-4
Format profile                           : Base Media / Version 2
Codec ID                                 : mp42
Overall bit rate mode                    : Variable
Overall bit rate                         : 2 061 Kbps

Video
ID                                       : 1
Format                                   : AVC
Format/Info                              : Advanced Video Codec
Format profile                           : Main@L3.0
Format settings, CABAC                   : Yes
Format settings, ReFrames                : 2 frames
Codec ID                                 : avc1
Codec ID/Info                            : Advanced Video Coding
Duration                                 : 47mn 50s
Bit rate mode                            : Variable
Bit rate                                 : 1 860 Kbps
Maximum bit rate                         : 7 343 Kbps
Width                                    : 720 pixels
Height                                   : 480 pixels
Display aspect ratio                     : 4:3
Original display aspect ratio            : 4:3
Frame rate mode                          : Constant
Frame rate                               : 29.970 fps
Standard                                 : NTSC
Color space                              : YUV
Chroma subsampling                       : 4:2:0
Bit depth                                : 8 bits
Scan type                                : Progressive
Bits/(Pixel*Frame)                       : 0.180
Stream size                              : 637 MiB (90%)
Language                                 : English

Audio
ID                                       : 2
Format                                   : AAC
Format/Info                              : Advanced Audio Codec
Format profile                           : LC
Codec ID                                 : 40
Bit rate mode                            : Variable
Bit rate                                 : 192 Kbps
Maximum bit rate                         : 234 Kbps
Channel(s)                               : 2 channels
Channel positions                        : Front: L R
Sampling rate                            : 48.0 KHz
Compression mode                         : Lossy
Stream size                              : 65.7 MiB (9%)
Title                                    : eng
Language                                 : English

Size:  2.81GB   